<?xml version="1.0" encoding="UTF-8"?>
<svg id="Capa_2" data-name="Capa 2" xmlns="http://www.w3.org/2000/svg" viewBox="0 0 329.57 309.38">
  <defs>
    <style>
      .cls-1 {
        fill: #fff;
        stroke-width: 0px;
      }
    </style>
  </defs>
  <g id="Capa_2-2" data-name="Capa 2">
    <path class="cls-1" d="m169.62,136.7c-5.92,3.36-11.3,8.19-16.14,14.48-5.53,8.55-8.29,17.19-8.29,25.95v2.42c0,13.86,6.25,26,18.76,36.42,2.15,1.5,4.3,2.82,6.46,3.95v-83.22h-.79Zm0,0c-5.92,3.36-11.3,8.19-16.14,14.48-5.53,8.55-8.29,17.19-8.29,25.95v2.42c0,13.86,6.25,26,18.76,36.42,2.15,1.5,4.3,2.82,6.46,3.95v-83.22h-.79Zm0,0c-5.92,3.36-11.3,8.19-16.14,14.48-5.53,8.55-8.29,17.19-8.29,25.95v2.42c0,13.86,6.25,26,18.76,36.42,2.15,1.5,4.3,2.82,6.46,3.95v-83.22h-.79Zm0,0c-5.92,3.36-11.3,8.19-16.14,14.48-5.53,8.55-8.29,17.19-8.29,25.95v2.42c0,13.86,6.25,26,18.76,36.42,2.15,1.5,4.3,2.82,6.46,3.95v-83.22h-.79Zm0,0c-5.92,3.36-11.3,8.19-16.14,14.48-5.53,8.55-8.29,17.19-8.29,25.95v2.42c0,13.86,6.25,26,18.76,36.42,2.15,1.5,4.3,2.82,6.46,3.95v-83.22h-.79Zm0,0c-5.92,3.36-11.3,8.19-16.14,14.48-5.53,8.55-8.29,17.19-8.29,25.95v2.42c0,13.86,6.25,26,18.76,36.42,2.15,1.5,4.3,2.82,6.46,3.95v-83.22h-.79Zm0,0c-5.92,3.36-11.3,8.19-16.14,14.48-5.53,8.55-8.29,17.19-8.29,25.95v2.42c0,13.86,6.25,26,18.76,36.42,2.15,1.5,4.3,2.82,6.46,3.95v-83.22h-.79Zm0,0c-5.92,3.36-11.3,8.19-16.14,14.48-5.53,8.55-8.29,17.19-8.29,25.95v2.42c0,13.86,6.25,26,18.76,36.42,2.15,1.5,4.3,2.82,6.46,3.95v-83.22h-.79Zm0,0c-5.92,3.36-11.3,8.19-16.14,14.48-5.53,8.55-8.29,17.19-8.29,25.95v2.42c0,13.86,6.25,26,18.76,36.42,2.15,1.5,4.3,2.82,6.46,3.95v-83.22h-.79Zm0,0c-5.92,3.36-11.3,8.19-16.14,14.48-5.53,8.55-8.29,17.19-8.29,25.95v2.42c0,13.86,6.25,26,18.76,36.42,2.15,1.5,4.3,2.82,6.46,3.95v-83.22h-.79Zm0,0c-5.92,3.36-11.3,8.19-16.14,14.48-5.53,8.55-8.29,17.19-8.29,25.95v2.42c0,13.86,6.25,26,18.76,36.42,2.15,1.5,4.3,2.82,6.46,3.95v-83.22h-.79Zm0,0c-5.92,3.36-11.3,8.19-16.14,14.48-5.53,8.55-8.29,17.19-8.29,25.95v2.42c0,13.86,6.25,26,18.76,36.42,2.15,1.5,4.3,2.82,6.46,3.95v-83.22h-.79ZM278.36,0H51.22C22.93,0,0,22.93,0,51.21v206.95c0,28.29,22.93,51.22,51.22,51.22h227.14c28.28,0,51.21-22.93,51.21-51.22V51.21c0-28.28-22.93-51.21-51.21-51.21Zm-40.25,215.19c-7.76,9.48-18.21,16.09-31.34,19.84-4.22,1.05-8.23,1.57-12.03,1.57h-4.85c-10.52,0-21.15-3.65-31.88-10.94-16.05-12.66-24.07-28.55-24.07-47.67,0-15.27,5.52-28.84,16.57-40.72.2-.19.39-.39.59-.57h-53.64v94.22h-16.38V72.78h16.38v47.88h72.95v-47.88h16.39v47.11c1.98-.19,4-.28,6.06-.28,16.52,0,30.9,6.41,43.14,19.22,4.2,5.11,7.38,9.8,9.52,14.07h-12.79c-10.22-14.69-23.69-22.04-40.41-22.04-1.88,0-3.72.1-5.52.3v93.95c1.39.16,2.79.23,4.19.23h2.65c14.9,0,27.51-6.69,37.83-20.08,2.28-3.13,4.08-6.34,5.39-9.63h11.63c-2.12,7.41-5.59,13.93-10.38,19.56Zm-84.63-64.01c-5.53,8.55-8.29,17.19-8.29,25.95v2.42c0,13.86,6.25,26,18.76,36.42,2.15,1.5,4.3,2.82,6.46,3.95v-83.22h-.79c-5.92,3.36-11.3,8.19-16.14,14.48Zm16.14-14.48c-5.92,3.36-11.3,8.19-16.14,14.48-5.53,8.55-8.29,17.19-8.29,25.95v2.42c0,13.86,6.25,26,18.76,36.42,2.15,1.5,4.3,2.82,6.46,3.95v-83.22h-.79Zm0,0c-5.92,3.36-11.3,8.19-16.14,14.48-5.53,8.55-8.29,17.19-8.29,25.95v2.42c0,13.86,6.25,26,18.76,36.42,2.15,1.5,4.3,2.82,6.46,3.95v-83.22h-.79Zm0,0c-5.92,3.36-11.3,8.19-16.14,14.48-5.53,8.55-8.29,17.19-8.29,25.95v2.42c0,13.86,6.25,26,18.76,36.42,2.15,1.5,4.3,2.82,6.46,3.95v-83.22h-.79Zm0,0c-5.92,3.36-11.3,8.19-16.14,14.48-5.53,8.55-8.29,17.19-8.29,25.95v2.42c0,13.86,6.25,26,18.76,36.42,2.15,1.5,4.3,2.82,6.46,3.95v-83.22h-.79Zm0,0c-5.92,3.36-11.3,8.19-16.14,14.48-5.53,8.55-8.29,17.19-8.29,25.95v2.42c0,13.86,6.25,26,18.76,36.42,2.15,1.5,4.3,2.82,6.46,3.95v-83.22h-.79Zm0,0c-5.92,3.36-11.3,8.19-16.14,14.48-5.53,8.55-8.29,17.19-8.29,25.95v2.42c0,13.86,6.25,26,18.76,36.42,2.15,1.5,4.3,2.82,6.46,3.95v-83.22h-.79Zm0,0c-5.92,3.36-11.3,8.19-16.14,14.48-5.53,8.55-8.29,17.19-8.29,25.95v2.42c0,13.86,6.25,26,18.76,36.42,2.15,1.5,4.3,2.82,6.46,3.95v-83.22h-.79Zm0,0c-5.92,3.36-11.3,8.19-16.14,14.48-5.53,8.55-8.29,17.19-8.29,25.95v2.42c0,13.86,6.25,26,18.76,36.42,2.15,1.5,4.3,2.82,6.46,3.95v-83.22h-.79Zm0,0c-5.92,3.36-11.3,8.19-16.14,14.48-5.53,8.55-8.29,17.19-8.29,25.95v2.42c0,13.86,6.25,26,18.76,36.42,2.15,1.5,4.3,2.82,6.46,3.95v-83.22h-.79Zm0,0c-5.92,3.36-11.3,8.19-16.14,14.48-5.53,8.55-8.29,17.19-8.29,25.95v2.42c0,13.86,6.25,26,18.76,36.42,2.15,1.5,4.3,2.82,6.46,3.95v-83.22h-.79Z"/>
  </g>
</svg>