<?xml version="1.0" encoding="UTF-8"?>
<svg id="Capa_2" data-name="Capa 2" xmlns="http://www.w3.org/2000/svg" viewBox="0 0 1434.55 327.37">
  <defs>
    <style>
      .cls-1 {
        stroke-width: 0px;
      }

      .cls-2 {
        fill: #fff;
        stroke: #fff;
      }

      .cls-2, .cls-3 {
        stroke-miterlimit: 10;
        stroke-width: 8px;
      }

      .cls-3 {
        fill: #1d1d1b;
        stroke: #1d1d1b;
      }
    </style>
  </defs>
  <g id="Capa_2-2" data-name="Capa 2">
    <g>
      <path class="cls-3" d="m540.91,110.67V18.29h30.72v305.08h-30.72v-181.77h-136.75v181.77h-30.72V18.29h30.72v92.38h136.75Z"/>
      <path class="cls-3" d="m764.92,50.08h-136.75v60.59h136.75v30.72h-136.75v151.26h136.75v30.72h-167.47V18.51h167.47v31.57Z"/>
      <path class="cls-3" d="m1057.42,211.53c-3.57,8.98-8.48,17.74-14.73,26.3-28.16,36.55-62.58,54.82-103.26,54.82h-7.25c-24.75,0-49.36-8.53-73.81-25.6-34.14-28.45-51.21-61.59-51.21-99.42v-6.61c0-23.89,7.54-47.5,22.62-70.83,28.45-36.98,63.79-55.47,106.03-55.47,45.66,0,82.43,20.05,110.33,60.16h34.92c-5.85-11.67-14.51-24.47-25.99-38.4-33.42-34.99-72.68-52.49-117.76-52.49s-83.21,16.07-115.63,48.22c-30.16,32.42-45.23,69.48-45.23,111.15,0,52.2,21.9,95.58,65.71,130.13,29.3,19.92,58.31,29.87,87.04,29.87h13.23c10.38,0,21.33-1.41,32.85-4.27,35.84-10.23,64.36-28.3,85.55-54.18,13.08-15.37,22.54-33.16,28.35-53.39h-31.75Z"/>
      <path class="cls-3" d="m1272.46,4c45.66,0,85.41,18.28,119.26,54.83,25.88,31.86,38.83,65,38.83,99.42v10.88c0,33.57-12.23,66-36.69,97.28-19.2,20.2-34.06,32.64-44.59,37.33-25.6,13.09-49.92,19.63-72.96,19.63h-11.09c-29.3,0-58.53-9.74-87.68-29.23-44.38-34.7-66.56-78.3-66.56-130.78,0-41.24,14.86-78.08,44.59-110.51,32-32.57,70.97-48.86,116.91-48.86Zm-130.78,155.74v8.75c0,37.55,17.56,70.9,52.7,100.06,23.89,16.64,49.71,24.96,77.44,24.96,40.53,0,75.17-17.78,103.9-53.34,16.5-23.61,24.75-49,24.75-76.16,0-30.15-9.74-57.46-29.23-81.92-28.45-31.57-60.38-47.36-95.79-47.36h-8.75c-29.3,0-57.6,11.66-84.91,34.99-26.74,27.31-40.11,57.32-40.11,90.03Z"/>
      <g>
        <rect class="cls-1" y="13.88" width="329.57" height="309.38" rx="51.22" ry="51.22"/>
        <g>
          <polygon class="cls-2" points="170.41 134.54 170.41 86.66 186.8 86.66 186.8 244.8 170.41 244.8 170.41 150.58 97.47 150.58 97.47 244.8 81.08 244.8 81.08 86.66 97.47 86.66 97.47 134.54 170.41 134.54"/>
          <path class="cls-2" d="m236.86,209.51c-1.31,3.29-3.11,6.5-5.4,9.63-10.32,13.39-22.92,20.08-37.82,20.08h-2.66c-9.06,0-18.08-3.12-27.04-9.38-12.51-10.42-18.76-22.56-18.76-36.42v-2.42c0-8.75,2.76-17.4,8.28-25.95,10.42-13.54,23.37-20.32,38.84-20.32,16.73,0,30.19,7.34,40.41,22.04h12.79c-2.14-4.27-5.32-8.96-9.52-14.07-12.24-12.82-26.62-19.23-43.14-19.23s-30.48,5.89-42.36,17.66c-11.05,11.88-16.57,25.45-16.57,40.72,0,19.12,8.02,35.01,24.07,47.67,10.73,7.3,21.36,10.94,31.88,10.94h4.85c3.8,0,7.81-.52,12.03-1.56,13.13-3.75,23.58-10.37,31.34-19.85,4.79-5.63,8.25-12.15,10.38-19.56h-11.63Z"/>
        </g>
      </g>
    </g>
  </g>
</svg>