<?xml version="1.0" encoding="UTF-8"?>
<svg id="Capa_2" data-name="Capa 2" xmlns="http://www.w3.org/2000/svg" viewBox="0 0 2281.48 533.32">
  <defs>
    <style>
      .cls-1 {
        letter-spacing: .11em;
      }

      .cls-2 {
        letter-spacing: .14em;
      }

      .cls-3 {
        letter-spacing: .14em;
      }

      .cls-4 {
        letter-spacing: .16em;
      }

      .cls-5 {
        font-family: JHCSineas-Extralight, 'JHC Sineas';
        font-size: 52.49px;
        font-weight: 200;
      }

      .cls-5, .cls-6 {
        fill: #fff;
        stroke: #fff;
        stroke-miterlimit: 10;
      }

      .cls-6 {
        stroke-width: 8px;
      }
    </style>
  </defs>
  <g id="Capa_2-2" data-name="Capa 2">
    <g>
      <text class="cls-5" transform="translate(1603.36 241.24)"><tspan class="cls-4" x="0" y="0">Bu</tspan><tspan class="cls-3" x="77.97" y="0">s</tspan><tspan class="cls-4" x="111.62" y="0">iness Intelligence </tspan><tspan class="cls-4"><tspan x="0" y="66.92">&amp; Soluciones </tspan></tspan><tspan class="cls-1" x="0" y="133.85">T</tspan><tspan class="cls-4" x="32.41" y="133.85">ecnológi</tspan><tspan class="cls-2" x="291.15" y="133.85">c</tspan><tspan class="cls-4" x="322.69" y="133.85">as</tspan></text>
      <path class="cls-6" d="m246.44,221.4V87.68h44.47v441.64h-44.47v-263.13H48.47v263.13H4V87.68h44.47v133.73h197.97Z"/>
      <path class="cls-6" d="m570.72,133.69h-197.97v87.71h197.97v44.47h-197.97v218.97h197.97v44.47h-242.44V87.98h242.44v45.71Z"/>
      <path class="cls-6" d="m994.15,367.41c-5.17,13-12.28,25.68-21.32,38.07-40.77,52.91-90.6,79.36-149.48,79.36h-10.5c-35.82,0-71.45-12.35-106.86-37.06-49.42-41.18-74.13-89.15-74.13-143.93v-9.57c0-34.59,10.92-68.76,32.74-102.54,41.18-53.53,92.34-80.3,153.49-80.3,66.1,0,119.32,29.03,159.71,87.09h50.55c-8.46-16.89-21.01-35.42-37.62-55.59-48.38-50.65-105.22-75.98-170.47-75.98s-120.45,23.27-167.39,69.8c-43.66,46.94-65.48,100.58-65.48,160.91,0,75.56,31.7,138.36,95.12,188.39,42.41,28.83,84.42,43.24,126,43.24h19.16c15.03,0,30.88-2.05,47.56-6.18,51.89-14.82,93.17-40.97,123.85-78.43,18.94-22.24,32.62-48,41.03-77.29h-45.97Z"/>
      <path class="cls-6" d="m1305.45,66.98c66.09,0,123.64,26.46,172.64,79.37,37.47,46.12,56.21,94.09,56.21,143.92v15.75c0,48.59-17.71,95.54-53.12,140.83-27.8,29.24-49.31,47.25-64.55,54.05-37.06,18.95-72.27,28.41-105.62,28.41h-16.06c-42.42,0-84.73-14.1-126.93-42.31-64.24-50.23-96.36-113.34-96.36-189.32,0-59.71,21.51-113.03,64.55-159.98,46.33-47.15,102.74-70.72,169.24-70.72Zm-189.32,225.45v12.66c0,54.36,25.43,102.64,76.28,144.85,34.59,24.09,71.96,36.13,112.11,36.13,58.68,0,108.81-25.73,150.4-77.21,23.88-34.17,35.83-70.93,35.83-110.26,0-43.65-14.11-83.18-42.31-118.59-41.18-45.71-87.4-68.56-138.67-68.56h-12.66c-42.42,0-83.39,16.88-122.92,50.65-38.71,39.53-58.06,82.98-58.06,130.33Z"/>
    </g>
  </g>
</svg>