<?xml version="1.0" encoding="UTF-8"?>
<svg id="Capa_2" data-name="Capa 2" xmlns="http://www.w3.org/2000/svg" viewBox="0 0 1434.55 327.37">
  <defs>
    <style>
      .cls-1 {
        stroke-width: 0px;
      }

      .cls-2 {
        fill: #1d1d1b;
        stroke: #1d1d1b;
        stroke-miterlimit: 10;
        stroke-width: 8px;
      }
    </style>
  </defs>
  <g id="Capa_2-2" data-name="Capa 2">
    <path class="cls-2" d="m540.92,110.67V18.29h30.72v305.08h-30.72v-181.77h-136.75v181.77h-30.72V18.29h30.72v92.38h136.75Z"/>
    <path class="cls-2" d="m764.93,50.08h-136.75v60.59h136.75v30.72h-136.75v151.26h136.75v30.72h-167.47V18.51h167.47v31.57Z"/>
    <path class="cls-2" d="m1057.43,211.53c-3.57,8.98-8.48,17.74-14.73,26.3-28.16,36.55-62.58,54.82-103.26,54.82h-7.25c-24.75,0-49.36-8.53-73.81-25.6-34.14-28.45-51.21-61.59-51.21-99.42v-6.61c0-23.89,7.54-47.5,22.62-70.83,28.45-36.98,63.79-55.47,106.03-55.47,45.66,0,82.43,20.05,110.33,60.16h34.92c-5.85-11.67-14.51-24.47-25.99-38.4-33.42-34.99-72.68-52.49-117.76-52.49s-83.21,16.07-115.63,48.22c-30.16,32.42-45.23,69.48-45.23,111.15,0,52.2,21.9,95.58,65.71,130.13,29.3,19.92,58.31,29.87,87.04,29.87h13.23c10.38,0,21.33-1.41,32.85-4.27,35.84-10.23,64.36-28.3,85.55-54.18,13.08-15.37,22.54-33.16,28.35-53.39h-31.75Z"/>
    <path class="cls-2" d="m1272.47,4c45.66,0,85.41,18.28,119.26,54.83,25.88,31.86,38.83,65,38.83,99.42v10.88c0,33.57-12.23,66-36.69,97.28-19.2,20.2-34.06,32.64-44.59,37.33-25.6,13.09-49.92,19.63-72.96,19.63h-11.09c-29.3,0-58.53-9.74-87.68-29.23-44.38-34.7-66.56-78.3-66.56-130.78,0-41.24,14.86-78.08,44.59-110.51,32-32.57,70.97-48.86,116.91-48.86Zm-130.78,155.74v8.75c0,37.55,17.56,70.9,52.7,100.06,23.89,16.64,49.71,24.96,77.44,24.96,40.53,0,75.17-17.78,103.9-53.34,16.5-23.61,24.75-49,24.75-76.16,0-30.15-9.74-57.46-29.23-81.92-28.45-31.57-60.38-47.36-95.79-47.36h-8.75c-29.3,0-57.6,11.66-84.91,34.99-26.74,27.31-40.11,57.32-40.11,90.03Z"/>
    <path class="cls-1" d="m169.63,150.58c-5.93,3.36-11.31,8.19-16.15,14.49-5.52,8.54-8.28,17.19-8.28,25.94v2.42c0,13.86,6.25,26,18.75,36.42,2.15,1.5,4.31,2.82,6.47,3.96v-83.23h-.79Zm0,0c-5.93,3.36-11.31,8.19-16.15,14.49-5.52,8.54-8.28,17.19-8.28,25.94v2.42c0,13.86,6.25,26,18.75,36.42,2.15,1.5,4.31,2.82,6.47,3.96v-83.23h-.79Zm0,0c-5.93,3.36-11.31,8.19-16.15,14.49-5.52,8.54-8.28,17.19-8.28,25.94v2.42c0,13.86,6.25,26,18.75,36.42,2.15,1.5,4.31,2.82,6.47,3.96v-83.23h-.79Zm0,0c-5.93,3.36-11.31,8.19-16.15,14.49-5.52,8.54-8.28,17.19-8.28,25.94v2.42c0,13.86,6.25,26,18.75,36.42,2.15,1.5,4.31,2.82,6.47,3.96v-83.23h-.79Zm0,0c-5.93,3.36-11.31,8.19-16.15,14.49-5.52,8.54-8.28,17.19-8.28,25.94v2.42c0,13.86,6.25,26,18.75,36.42,2.15,1.5,4.31,2.82,6.47,3.96v-83.23h-.79Zm0,0c-5.93,3.36-11.31,8.19-16.15,14.49-5.52,8.54-8.28,17.19-8.28,25.94v2.42c0,13.86,6.25,26,18.75,36.42,2.15,1.5,4.31,2.82,6.47,3.96v-83.23h-.79ZM278.36,13.87H51.22C22.94,13.87,0,36.8,0,65.09v206.94c0,28.29,22.94,51.22,51.22,51.22h227.14c28.29,0,51.22-22.93,51.22-51.22V65.09c0-28.29-22.93-51.22-51.22-51.22Zm-40.24,215.19c-7.77,9.48-18.21,16.1-31.34,19.85-4.22,1.04-8.23,1.56-12.04,1.56h-4.84c-10.53,0-21.16-3.64-31.89-10.94-16.04-12.66-24.07-28.55-24.07-47.67,0-15.26,5.52-28.84,16.57-40.71.2-.2.4-.39.6-.58h-53.64v94.23h-16.39V86.65h16.39v47.89h72.95v-47.89h16.38v47.11c1.99-.19,4.01-.28,6.07-.28,16.51,0,30.89,6.41,43.14,19.23,4.2,5.1,7.37,9.79,9.51,14.07h-12.79c-10.22-14.7-23.68-22.04-40.41-22.04-1.88,0-3.71.1-5.52.3v93.95c1.4.16,2.79.23,4.19.23h2.66c14.9,0,27.51-6.69,37.82-20.08,2.29-3.14,4.09-6.35,5.4-9.64h11.63c-2.13,7.42-5.59,13.93-10.38,19.56Zm-84.64-64c-5.52,8.54-8.28,17.19-8.28,25.94v2.42c0,13.86,6.25,26,18.75,36.42,2.15,1.5,4.31,2.82,6.47,3.96v-83.23h-.79c-5.93,3.36-11.31,8.19-16.15,14.49Zm16.15-14.49c-5.93,3.36-11.31,8.19-16.15,14.49-5.52,8.54-8.28,17.19-8.28,25.94v2.42c0,13.86,6.25,26,18.75,36.42,2.15,1.5,4.31,2.82,6.47,3.96v-83.23h-.79Zm0,0c-5.93,3.36-11.31,8.19-16.15,14.49-5.52,8.54-8.28,17.19-8.28,25.94v2.42c0,13.86,6.25,26,18.75,36.42,2.15,1.5,4.31,2.82,6.47,3.96v-83.23h-.79Zm0,0c-5.93,3.36-11.31,8.19-16.15,14.49-5.52,8.54-8.28,17.19-8.28,25.94v2.42c0,13.86,6.25,26,18.75,36.42,2.15,1.5,4.31,2.82,6.47,3.96v-83.23h-.79Zm0,0c-5.93,3.36-11.31,8.19-16.15,14.49-5.52,8.54-8.28,17.19-8.28,25.94v2.42c0,13.86,6.25,26,18.75,36.42,2.15,1.5,4.31,2.82,6.47,3.96v-83.23h-.79Z"/>
  </g>
</svg>