<?xml version="1.0" encoding="UTF-8"?>
<svg id="Capa_2" data-name="Capa 2" xmlns="http://www.w3.org/2000/svg" viewBox="0 0 329.57 309.38">
  <defs>
    <style>
      .cls-1 {
        stroke-width: 0px;
      }

      .cls-2 {
        fill: #fff;
        stroke: #fff;
        stroke-miterlimit: 10;
        stroke-width: 8px;
      }
    </style>
  </defs>
  <g id="Capa_2-2" data-name="Capa 2">
    <g>
      <rect class="cls-1" width="329.57" height="309.38" rx="51.22" ry="51.22"/>
      <g>
        <polygon class="cls-2" points="170.41 120.67 170.41 72.78 186.8 72.78 186.8 230.92 170.41 230.92 170.41 136.7 97.47 136.7 97.47 230.92 81.08 230.92 81.08 72.78 97.47 72.78 97.47 120.67 170.41 120.67"/>
        <path class="cls-2" d="m236.86,195.63c-1.31,3.29-3.11,6.5-5.4,9.63-10.32,13.39-22.92,20.08-37.82,20.08h-2.66c-9.06,0-18.08-3.12-27.04-9.38-12.51-10.42-18.76-22.56-18.76-36.42v-2.42c0-8.75,2.76-17.4,8.28-25.95,10.42-13.54,23.37-20.32,38.84-20.32,16.73,0,30.19,7.34,40.41,22.04h12.79c-2.14-4.27-5.32-8.96-9.52-14.07-12.24-12.82-26.62-19.23-43.14-19.23s-30.48,5.89-42.36,17.66c-11.05,11.88-16.57,25.45-16.57,40.72,0,19.12,8.02,35.01,24.07,47.67,10.73,7.3,21.36,10.94,31.88,10.94h4.85c3.8,0,7.81-.52,12.03-1.56,13.13-3.75,23.58-10.37,31.34-19.85,4.79-5.63,8.25-12.15,10.38-19.56h-11.63Z"/>
      </g>
    </g>
  </g>
</svg>